<svg width="48" height="48" viewBox="0 0 48 48" fill="none" xmlns="http://www.w3.org/2000/svg">
<path d="M23.4102 10.2957C23.4102 9.61439 24.4747 8.08057 24.4747 8.08057C24.4747 8.08057 25.5392 9.61439 25.5392 10.2957C25.5392 10.977 25.0646 11.5317 24.4747 11.5317C23.8879 11.5317 23.4102 10.977 23.4102 10.2957Z" fill="#008BBB"/>
<path d="M26.1545 39.6923H21.8834C20.8547 39.6923 20.0176 38.9751 20.0176 38.0871V29.4168C20.0176 29.4168 20.7538 27.7627 23.9055 29.4168C27.0572 31.0708 28.0254 29.4168 28.0254 29.4168V38.0871C28.0203 38.9751 27.1832 39.6923 26.1545 39.6923Z" fill="#008BBB"/>
<path d="M20.4512 13.9406C20.4512 12.9862 22.2254 10.8389 22.2254 10.8389C22.2254 10.8389 23.9996 12.9862 23.9996 13.9406C23.9996 14.895 23.2042 15.6704 22.2254 15.6704C21.2465 15.6704 20.4512 14.895 20.4512 13.9406Z" fill="#008BBB"/>
<path d="M24 46C36.1503 46 46 36.1503 46 24C46 11.8497 36.1503 2 24 2C11.8497 2 2 11.8497 2 24C2 36.1503 11.8497 46 24 46Z" stroke="#0E3643" stroke-width="2.5" stroke-miterlimit="10"/>
<path d="M26.0587 39.4771H22.1438C20.9689 39.4771 20.0176 38.5258 20.0176 37.3508V24.2412H28.1849V37.3461C28.1849 38.521 27.2336 39.4771 26.0587 39.4771Z" stroke="#0E3643" stroke-width="0.5" stroke-miterlimit="10"/>
<path d="M29.7446 23.2056H18.2523C17.6481 23.2056 17.1582 22.7157 17.1582 22.1116V18.5345C17.1582 17.9304 17.6481 17.4404 18.2523 17.4404H29.7446C30.3487 17.4404 30.8386 17.9304 30.8386 18.5345V22.1116C30.8386 22.7157 30.3487 23.2056 29.7446 23.2056Z" fill="#0E3643" stroke="white" stroke-miterlimit="10"/>
<path d="M28.2589 26.2698H19.6159C19.1592 26.2698 18.793 25.8988 18.793 25.4469V22.7546C18.793 22.2979 19.164 21.9316 19.6159 21.9316H28.2589C28.7156 21.9316 29.0818 22.3027 29.0818 22.7546V25.4469C29.0818 25.8988 28.7108 26.2698 28.2589 26.2698Z" fill="#0E3643" stroke="white" stroke-width="0.5" stroke-miterlimit="10"/>
</svg>
