<svg width="36" height="36" viewBox="0 0 36 36" fill="none" xmlns="http://www.w3.org/2000/svg">
<path d="M17.5713 8.03336C17.5713 7.53787 18.3455 6.42236 18.3455 6.42236C18.3455 6.42236 19.1197 7.53787 19.1197 8.03336C19.1197 8.52884 18.7746 8.93226 18.3455 8.93226C17.9187 8.93226 17.5713 8.52884 17.5713 8.03336Z" fill="#008BBB"/>
<path d="M19.5667 29.4126H16.4605C15.7123 29.4126 15.1035 28.8909 15.1035 28.2451V21.9394C15.1035 21.9394 15.639 20.7365 17.9311 21.9394C20.2232 23.1424 20.9274 21.9394 20.9274 21.9394V28.2451C20.9237 28.8909 20.3149 29.4126 19.5667 29.4126Z" fill="#008BBB"/>
<path d="M15.4189 10.684C15.4189 9.98994 16.7093 8.42822 16.7093 8.42822C16.7093 8.42822 17.9996 9.98994 17.9996 10.684C17.9996 11.3781 17.4212 11.9421 16.7093 11.9421C15.9974 11.9421 15.4189 11.3781 15.4189 10.684Z" fill="#008BBB"/>
<path d="M18 34C26.8366 34 34 26.8366 34 18C34 9.16344 26.8366 2 18 2C9.16344 2 2 9.16344 2 18C2 26.8366 9.16344 34 18 34Z" stroke="#0E3643" stroke-width="2.5" stroke-miterlimit="10"/>
<path d="M19.497 29.2559H16.6499C15.7954 29.2559 15.1035 28.564 15.1035 27.7096V18.1753H21.0434V27.7061C21.0434 28.5606 20.3515 29.2559 19.497 29.2559Z" stroke="#0E3643" stroke-width="0.5" stroke-miterlimit="10"/>
<path d="M22.1781 17.4224H13.8201C13.3807 17.4224 13.0244 17.066 13.0244 16.6267V14.0252C13.0244 13.5858 13.3807 13.2295 13.8201 13.2295H22.1781C22.6175 13.2295 22.9738 13.5858 22.9738 14.0252V16.6267C22.9738 17.066 22.6175 17.4224 22.1781 17.4224Z" fill="#0E3643" stroke="white" stroke-miterlimit="10"/>
<path d="M21.0972 19.6506H14.8114C14.4793 19.6506 14.2129 19.3808 14.2129 19.0521V17.0941C14.2129 16.762 14.4827 16.4956 14.8114 16.4956H21.0972C21.4293 16.4956 21.6957 16.7654 21.6957 17.0941V19.0521C21.6957 19.3808 21.4259 19.6506 21.0972 19.6506Z" fill="#0E3643" stroke="white" stroke-width="0.5" stroke-miterlimit="10"/>
</svg>
