<svg width="50" height="50" viewBox="0 0 50 50" fill="none" xmlns="http://www.w3.org/2000/svg">
<path d="M2.6145 24.6016H5.07284M44.4062 24.6016H46.8645M9.00617 8.86823L10.727 10.5891M40.4728 8.86823L38.752 10.5891M14.9062 24.6016C14.9062 21.9936 15.9422 19.4925 17.7863 17.6483C19.6304 15.8042 22.1315 14.7682 24.7395 14.7682C27.3475 14.7682 29.8486 15.8042 31.6927 17.6483C33.5368 19.4925 34.5728 21.9936 34.5728 24.6016M24.7395 4.9349V2.47656M27.1978 34.4349L32.1145 46.7266H34.5728L39.4895 34.4349M9.9895 34.4349V41.8099C9.9895 43.1139 10.5075 44.3644 11.4296 45.2865C12.3516 46.2086 13.6022 46.7266 14.9062 46.7266C16.2101 46.7266 17.4607 46.2086 18.3828 45.2865C19.3048 44.3644 19.8228 43.1139 19.8228 41.8099V34.4349" stroke="white" stroke-width="4.91667" stroke-linecap="round" stroke-linejoin="round"/>
</svg>
