<svg width="51" height="49" viewBox="0 0 51 49" fill="none" xmlns="http://www.w3.org/2000/svg">
<path d="M4.53638 22.0701C4.53638 21.8256 4.63351 21.5911 4.80639 21.4182C4.97928 21.2453 5.21376 21.1482 5.45826 21.1482H9.14576C9.39026 21.1482 9.62474 21.2453 9.79762 21.4182C9.97051 21.5911 10.0676 21.8256 10.0676 22.0701C10.0676 22.3146 9.97051 22.549 9.79762 22.7219C9.62474 22.8948 9.39026 22.9919 9.14576 22.9919H5.45826C5.21376 22.9919 4.97928 22.8948 4.80639 22.7219C4.63351 22.549 4.53638 22.3146 4.53638 22.0701ZM13.3541 10.9891C13.4398 11.0748 13.5415 11.1427 13.6534 11.1891C13.7653 11.2354 13.8852 11.2593 14.0063 11.2593C14.1275 11.2593 14.2474 11.2354 14.3593 11.1891C14.4712 11.1427 14.5729 11.0748 14.6586 10.9891C14.7442 10.9035 14.8122 10.8018 14.8585 10.6899C14.9049 10.578 14.9287 10.458 14.9287 10.3369C14.9287 10.2158 14.9049 10.0958 14.8585 9.98392C14.8122 9.87201 14.7442 9.77033 14.6586 9.68468L12.0497 7.0896C11.8721 6.95645 11.6525 6.89181 11.4312 6.90754C11.2098 6.92327 11.0016 7.01832 10.8447 7.17524C10.6878 7.33215 10.5927 7.5404 10.577 7.76175C10.5613 7.9831 10.6259 8.2027 10.759 8.38022L13.3541 10.9891ZM25.7395 6.39819C25.984 6.39819 26.2185 6.30107 26.3914 6.12818C26.5643 5.9553 26.6614 5.72081 26.6614 5.47632V1.78882C26.6614 1.54432 26.5643 1.30984 26.3914 1.13695C26.2185 0.964069 25.984 0.866943 25.7395 0.866943C25.495 0.866943 25.2605 0.964069 25.0876 1.13695C24.9148 1.30984 24.8176 1.54432 24.8176 1.78882V5.47632C24.8176 5.72081 24.9148 5.9553 25.0876 6.12818C25.2605 6.30107 25.495 6.39819 25.7395 6.39819ZM37.4727 11.2588C37.5938 11.2589 37.7137 11.2351 37.8256 11.1888C37.9375 11.1426 38.0392 11.0747 38.1249 10.9891L40.7315 8.38022C40.8317 8.29855 40.9137 8.1967 40.972 8.08129C41.0303 7.96589 41.0636 7.83951 41.0699 7.71037C41.0762 7.58122 41.0553 7.4522 41.0084 7.33169C40.9616 7.21117 40.8899 7.10185 40.7981 7.01083C40.7063 6.91981 40.5963 6.84913 40.4754 6.80337C40.3545 6.75761 40.2253 6.73781 40.0962 6.74523C39.9671 6.75266 39.841 6.78716 39.7261 6.84649C39.6113 6.90582 39.5101 6.98865 39.4294 7.0896L36.8204 9.68468C36.6914 9.81361 36.6035 9.97793 36.5678 10.1569C36.5322 10.3358 36.5505 10.5212 36.6203 10.6898C36.6901 10.8583 36.8084 11.0024 36.9601 11.1036C37.1119 11.2049 37.2902 11.2589 37.4727 11.2588ZM42.3333 22.9919H46.0208C46.2653 22.9919 46.4997 22.8948 46.6726 22.7219C46.8455 22.549 46.9426 22.3146 46.9426 22.0701C46.9426 21.8256 46.8455 21.5911 46.6726 21.4182C46.4997 21.2453 46.2653 21.1482 46.0208 21.1482H42.3333C42.0888 21.1482 41.8543 21.2453 41.6814 21.4182C41.5085 21.5911 41.4114 21.8256 41.4114 22.0701C41.4114 22.3146 41.5085 22.549 41.6814 22.7219C41.8543 22.8948 42.0888 22.9919 42.3333 22.9919ZM16.5208 22.9919C16.7653 22.9919 16.9997 22.8948 17.1726 22.7219C17.3455 22.549 17.4426 22.3146 17.4426 22.0701C17.4426 19.8696 18.3168 17.7593 19.8727 16.2033C21.4287 14.6473 23.539 13.7732 25.7395 13.7732C27.94 13.7732 30.0503 14.6473 31.6063 16.2033C33.1622 17.7593 34.0364 19.8696 34.0364 22.0701C34.0364 22.3146 34.1335 22.549 34.3064 22.7219C34.4793 22.8948 34.7138 22.9919 34.9583 22.9919C35.2028 22.9919 35.4372 22.8948 35.6101 22.7219C35.783 22.549 35.8801 22.3146 35.8801 22.0701C35.8801 19.3806 34.8117 16.8013 32.91 14.8996C31.0083 12.9978 28.429 11.9294 25.7395 11.9294C23.05 11.9294 20.4707 12.9978 18.569 14.8996C16.6673 16.8013 15.5989 19.3806 15.5989 22.0701C15.5989 22.3146 15.696 22.549 15.8689 22.7219C16.0418 22.8948 16.2763 22.9919 16.5208 22.9919ZM50.5034 48.3435C50.4227 48.4832 50.3069 48.5992 50.1674 48.6801C50.0278 48.761 49.8695 48.8039 49.7083 48.8044H1.77076C1.60862 48.8051 1.44919 48.763 1.30854 48.6823C1.16788 48.6017 1.05099 48.4853 0.969639 48.3451C0.888293 48.2048 0.845375 48.0456 0.845215 47.8835C0.845055 47.7214 0.887658 47.562 0.968727 47.4216L10.3465 30.8279C10.4279 30.6869 10.5452 30.5699 10.6865 30.489C10.8278 30.408 10.988 30.3659 11.1508 30.3669H40.3282C40.491 30.3659 40.6512 30.408 40.7925 30.489C40.9338 30.5699 41.0511 30.6869 41.1325 30.8279L50.5103 47.4216C50.5902 47.5624 50.6316 47.7217 50.6303 47.8835C50.6291 48.0453 50.5853 48.204 50.5034 48.3435ZM39.7981 32.2107H32.4945L33.6976 37.7419H42.9163L39.7981 32.2107ZM31.817 37.7419L30.6139 32.2107H20.872L19.669 37.7419H31.817ZM19.2749 39.5857L17.6616 46.9607H33.8059L32.1926 39.5857H19.2749ZM8.56728 37.7419H17.786L18.9891 32.2107H11.6809L8.56728 37.7419ZM3.35869 46.9607H15.7786L17.3919 39.5857H7.51865L3.35869 46.9607ZM48.1342 46.9607L43.9673 39.5857H34.0986L35.7004 46.9607H48.1342Z" fill="white"/>
</svg>
