<svg width="50" height="48" viewBox="0 0 50 48" fill="none" xmlns="http://www.w3.org/2000/svg">
<path d="M47.4792 23.6014H17.1065M6.38567 23.6014H2M6.38567 23.6014C6.38567 22.18 6.95029 20.8169 7.95533 19.8119C8.96037 18.8068 10.3235 18.2422 11.7448 18.2422C13.1662 18.2422 14.5293 18.8068 15.5343 19.8119C16.5394 20.8169 17.104 22.18 17.104 23.6014C17.104 25.0227 16.5394 26.3858 15.5343 27.3909C14.5293 28.3959 13.1662 28.9605 11.7448 28.9605C10.3235 28.9605 8.96037 28.3959 7.95533 27.3909C6.95029 26.3858 6.38567 25.0227 6.38567 23.6014ZM47.4792 39.8436H33.3487M33.3487 39.8436C33.3487 41.2652 32.7827 42.6299 31.7774 43.6352C30.7721 44.6405 29.4087 45.2052 27.987 45.2052C26.5657 45.2052 25.2026 44.6381 24.1975 43.6331C23.1925 42.628 22.6279 41.2649 22.6279 39.8436M33.3487 39.8436C33.3487 38.4219 32.7827 37.0597 31.7774 36.0544C30.7721 35.0492 29.4087 34.4844 27.987 34.4844C26.5657 34.4844 25.2026 35.049 24.1975 36.0541C23.1925 37.0591 22.6279 38.4222 22.6279 39.8436M22.6279 39.8436H2M47.4792 7.35917H39.846M29.1253 7.35917H2M29.1253 7.35917C29.1253 5.93783 29.6899 4.5747 30.6949 3.56966C31.7 2.56462 33.0631 2 34.4844 2C35.1882 2 35.8851 2.13862 36.5353 2.40794C37.1855 2.67727 37.7763 3.07202 38.2739 3.56966C38.7716 4.06731 39.1663 4.6581 39.4356 5.3083C39.705 5.95851 39.8436 6.65539 39.8436 7.35917C39.8436 8.06294 39.705 8.75983 39.4356 9.41003C39.1663 10.0602 38.7716 10.651 38.2739 11.1487C37.7763 11.6463 37.1855 12.0411 36.5353 12.3104C35.8851 12.5797 35.1882 12.7183 34.4844 12.7183C33.0631 12.7183 31.7 12.1537 30.6949 11.1487C29.6899 10.1436 29.1253 8.78051 29.1253 7.35917Z" stroke="white" stroke-width="3.6875" stroke-miterlimit="10" stroke-linecap="round"/>
</svg>
